# AST/ASF file generated using VICON BodyLanguage
# -----------------------------------------------
:version 1.10
:name VICON
:units
  mass 1.0
  length 0.45
  angle deg
:documentation
   .ast/.asf automatically generated from VICON data using
   VICON BodyBuilder and BodyLanguage model FoxedUp or BRILLIANT.MOD
:root
   order TX TY TZ RX RY RZ
   axis XYZ
   position 0 0 0  
   orientation 0 0 0 
:bonedata
  begin
     id 1 
     name lhipjoint
     direction 0.646657 -0.683706 0.338203 
     length 2.4948 
     axis 0 0 0  XYZ
  end
  begin
     id 2 
     name lfemur
     direction 0.34202 -0.939693 0  
     length 6.79491  
     axis 0 0 20  XYZ
    dof rx ry rz
    limits (-160.0 20.0)
           (-70.0 70.0)
           (-60.0 70.0)
  end
  begin
     id 3 
     name ltibia
     direction 0.34202 -0.939693 0   
     length 7.56807   
     axis 0 0 20   XYZ
    dof rx
    limits (-10.0 170.0)
  end
  begin
     id 4 
     name lfoot
     direction 0.0679796 -0.186772 0.980048   
     length 2.53018   
     axis -90 7.62852e-016 20   XYZ
    dof rx rz
    limits (-45.0 90.0)
           (-70.0 20.0)
  end
  begin
     id 5 
     name ltoes
     direction 1.53625e-011 -4.21881e-011 1   
     length 1.26912   
     axis -90 7.62852e-016 20   XYZ
    dof rx
    limits (-90.0 20.0)
  end
  begin
     id 6 
     name rhipjoint
     direction -0.618868 -0.704065 0.348274   
     length 2.42265  
     axis 0 0 0  XYZ 
  end
  begin
     id 7 
     name rfemur
     direction -0.34202 -0.939693 0   
     length 6.73814   
     axis 0 0 -20   XYZ
    dof rx ry rz
    limits (-160.0 20.0)
           (-70.0 70.0)
           (-70.0 60.0)
  end
  begin
     id 8 
     name rtibia
     direction -0.34202 -0.939693 0   
     length 7.66799   
     axis 0 0 -20   XYZ
    dof rx
    limits (-10.0 170.0)
 end
 begin
     id 9 
     name rfoot
     direction -0.0727352 -0.199838 0.977125   
     length 2.57224  
     axis -90 -7.62852e-016 -20   XYZ
    dof rx rz
    limits (-45.0 90.0)
           (-20.0 70.0)
  end
  begin
     id 10 
     name rtoes
     direction -1.53501e-011 -4.21858e-011 1   
     length 1.28858   
     axis -90 -7.62852e-016 -20   XYZ
    dof rx
    limits (-90.0 20.0)
  end
  begin
     id 11 
     name lowerback
     direction -0.0172471 0.995767 -0.0902851   
     length 2.20206   
     axis 0 0 0   XYZ
    dof rx ry rz
    limits (-20.0 45.0)
           (-30.0 30.0)
           (-30.0 30.0)
  end
  begin
     id 12 
     name upperback
     direction -0.000110737 0.999714 0.0239043   
     length 2.19523   
     axis 0 0 0   XYZ
    dof rx ry rz
    limits (-20.0 45.0)
           (-30.0 30.0)
           (-30.0 30.0)
  end
  begin
     id 13 
     name thorax
     direction 0.00704869 0.997783 0.0661741   
     length 2.21977   
     axis 0 0 0   XYZ
    dof rx ry rz
    limits (-20.0 45.0)
           (-30.0 30.0)
           (-30.0 30.0)
  end
  begin
     id 14 
     name lowerneck
     direction -0.00407501 0.995527 0.0943846   
     length 1.83142   
     axis 0 0 0   XYZ
    dof rx ry rz
    limits (-20.0 45.0)
           (-30.0 30.0)
           (-30.0 30.0)
  end
  begin
     id 15 
     name upperneck
     direction 0.0640586 0.986486 -0.150807   
     length 1.84616   
     axis 0 0 0   XYZ
    dof rx ry rz
    limits (-20.0 45.0)
           (-30.0 30.0)
           (-30.0 30.0)
  end
  begin
     id 16
     name head
     direction 0.0188017 0.99791 -0.0618239  
     length 1.85932  
     axis 0 0 0   XYZ
    dof rx ry rz
    limits (-20.0 45.0)
           (-30.0 30.0)
           (-30.0 30.0)
  end
  begin
     id 17 
     name lclavicle
     direction 0.976074 0.206905 0.066852  
     length 3.81043  
     axis 0 0 0   XYZ
    dof ry rz
    limits (-20.0 10.0)
           (0.0 20.0)
  end
  begin
     id 18 
     name lhumerus
     direction 1 -4.48971e-011 1.86916e-027   
     length 5.37587   
     axis 180 -30 -90   XYZ
    dof rx ry rz
    limits (-60.0 90.0)
           (-90.0 90.0)
           (-90.0 90.0)
  end
  begin
     id 19
     name lradius
     direction 1 -4.48968e-011 1.69187e-027   
     length 3.35977   
     axis 180 -30 -90   XYZ
    dof rx
    limits (-10.0 170.0)
  end
  begin
     id 20
     name lwrist
     direction 1 -4.48968e-011 5.8978e-027   
     length 1.67988   
     axis -3.27506e-015 90 90   XYZ
    dof ry
    limits (-180.0 0.0)
 end
  begin
     id 21 
     name lhand
     direction 1 -4.49028e-011 1.18071e-026   
     length 0.561859   
     axis -7.52654e-015 90 90   XYZ
    dof rx rz
    limits (-90.0 90.0)
           (-45.0 45.0)
  end
  begin
     id 22 
     name lfingers
     direction 1 -4.48927e-011 2.35758e-026   
     length 0.452985   
     axis -1.50534e-014 90 90   XYZ
    dof rx
    limits (0.0 90.0)
  end
  begin
     id 23
     name lthumb
     direction 0.707107 -6.34898e-011 0.707107   
     length 0.650399   
     axis -90 45 5.69224e-014   XYZ
    dof rx rz
    limits (-45.0 45.0)
           (-45.0 45.0)
  end
  begin
     id 24 
     name rclavicle
     direction -0.988403 0.151789 0.00439714   
     length 3.6942  
     axis 0 0 0   XYZ 
    dof ry rz
    limits (-10.0 20.0)
           (-20.0 0.0)
  end
  begin
     id 25 
     name rhumerus
     direction -1 -4.48978e-011 1.62495e-027  
     length 5.22819   
     axis 180 30 90   XYZ
    dof rx ry rz
    limits (-90.0 60.0)
           (-90.0 90.0)
           (-90.0 90.0)
  end
  begin
     id 26 
     name rradius
     direction -1 -4.48961e-011 3.47796e-027   
     length 3.40764   
     axis 180 30 90   XYZ
    dof rx
    limits (-10.0 170.0)
  end
  begin
     id 27 
     name rwrist
     direction -1 -4.48949e-011 5.89602e-027   
     length 1.70382   
     axis -3.27506e-015 -90 -90   XYZ
    dof ry
    limits (-180.0 0.0)
  end
  begin
     id 28
     name rhand
     direction -1 -4.48977e-011 1.17973e-026   
     length 0.583255   
     axis -7.52654e-015 -90 -90   XYZ
    dof rx rz
    limits (-90.0 90.0)
           (-45.0 45.0)
  end
  begin
     id 29
     name rfingers
     direction -1 -4.49099e-011 2.36408e-026   
     length 0.470235   
     axis -1.50534e-014 -90 -90   XYZ
    dof rx
    limits (0.0 90.0)
  end
  begin
     id 30
     name rthumb
     direction -0.707107 -6.35011e-011 0.707107   
     length 0.675167   
     axis -90 -45 -5.69224e-014   XYZ
    dof rx rz
    limits (-45.0 45.0)
           (-45.0 45.0)
  end
:hierarchy
  begin
    root lhipjoint rhipjoint lowerback
    lhipjoint lfemur
    lfemur ltibia
    ltibia lfoot
    lfoot ltoes
    rhipjoint rfemur
    rfemur rtibia
    rtibia rfoot
    rfoot rtoes
    lowerback upperback
    upperback thorax
    thorax lowerneck lclavicle rclavicle
    lowerneck upperneck
    upperneck head
    lclavicle lhumerus
    lhumerus lradius
    lradius lwrist
    lwrist lhand lthumb
    lhand lfingers
    rclavicle rhumerus
    rhumerus rradius
    rradius rwrist
    rwrist rhand rthumb
    rhand rfingers
  end

#!OML:ASF G:\JayActor3\Patient Classification 1\Patient 1\Session 2\male.ASF
:FULLY-SPECIFIED
:DEGREES
1247
root -26.1698 15.6098 -3.7487 903.785 64.7918 -538.663
lowerback 8.58722 7.00746 4.80168
upperback 6.92121 10.028 -0.822293
thorax 3.43862 5.41607 -3.94717
lowerneck -2.07032 8.9103 1.10609
upperneck -4.75076 12.0312 -0.438792
head -1.02788 6.06719 -0.33832
rclavicle 5.12864e-014 -4.53229e-014
rhumerus -23.2516 0.48151 -66.2556
rradius 77.5057
rwrist 4.90306
rhand -39.4291 12.091
rfingers 7.12502
rthumb -12.4174 -17.5202
lclavicle 5.12864e-014 -4.53229e-014
lhumerus -19.4363 -20.4231 67.6277
lradius 85.0618
lwrist 12.8289
lhand -28.8127 15.3175
lfingers 7.12502
lthumb -2.17084 45.2862
rfemur -9.19489 -9.61683 29.2204
rtibia 50.1218
rfoot -38.3697 -8.63831
rtoes 9.19059
lfemur -43.287 2.76048 -27.8788
ltibia 47.4354
lfoot -3.22685 -1.349
ltoes 2.62768
1248
root -26.0757 15.6036 -3.78032 903.872 64.9893 -538.623
lowerback 8.52349 6.94204 4.68099
upperback 6.90368 9.92788 -0.848892
thorax 3.42693 5.35941 -3.90158
lowerneck -2.29296 8.04979 0.416545
upperneck -4.92301 10.9269 0.31493
head -1.13311 5.52006 -0.00790713
rclavicle 1.04362e-013 -1.07344e-014
rhumerus -23.0556 0.634353 -66.4609
rradius 77.5827
rwrist 4.93689
rhand -39.475 12.1037
rfingers 7.12502
rthumb -12.4617 -17.5048
lclavicle 1.04362e-013 -1.07344e-014
lhumerus -19.5011 -20.0781 67.5242
lradius 84.9929
lwrist 12.8864
lhand -28.9745 15.3712
lfingers 7.12502
lthumb -2.32705 45.3383
rfemur -8.83247 -9.56271 29.1623
rtibia 50.1251
rfoot -38.2454 -8.45991
rtoes 8.40959
lfemur -43.2743 2.67345 -27.7736
ltibia 47.9975
lfoot -3.7668 -0.927345
ltoes 3.11882
1249
root -25.982 15.5984 -3.81146 904.016 65.1897 -538.518
lowerback 8.467 6.87876 4.57137
upperback 6.88622 9.83145 -0.860897
thorax 3.41134 5.30455 -3.84803
lowerneck -2.47077 7.15147 -0.314998
upperneck -5.12455 9.77909 1.10945
head -1.24528 4.95229 0.347353
rclavicle 8.26944e-014 -3.22031e-014
rhumerus -22.8671 0.794286 -66.6513
rradius 77.6488
rwrist 4.97756
rhand -39.5133 12.1227
rfingers 7.12502
rthumb -12.4985 -17.4836
lclavicle 8.26944e-014 -3.22031e-014
lhumerus -19.5618 -19.7548 67.4461
lradius 84.9138
lwrist 12.9348
lhand -29.1497 15.4107
lfingers 7.12502
lthumb -2.4963 45.3759
rfemur -8.46708 -9.48436 29.1456
rtibia 50.1123
rfoot -38.1149 -8.32048
rtoes 7.69819
lfemur -43.2463 2.61477 -27.6413
ltibia 48.5497
lfoot -4.31743 -0.586811
ltoes 3.54747
1250
root -25.8882 15.5941 -3.8422 904.213 65.3861 -538.355
lowerback 8.40175 6.81416 4.46164
upperback 6.8723 9.73263 -0.853543
thorax 3.4008 5.24806 -3.77306
lowerneck -2.5869 6.22226 -1.07995
upperneck -5.35764 8.59567 1.93597
head -1.36472 4.36748 0.726463
rclavicle 1.43125e-013 -2.5842e-014
rhumerus -22.6753 0.96256 -66.8285
rradius 77.6941
rwrist 5.02564
rhand -39.5447 12.1394
rfingers 7.12502
rthumb -12.5288 -17.4649
lclavicle 1.43125e-013 -2.5842e-014
lhumerus -19.6099 -19.4413 67.4019
lradius 84.8129
lwrist 12.9598
lhand -29.3304 15.4487
lfingers 7.12502
lthumb -2.67082 45.4118
rfemur -8.10019 -9.38744 29.1674
rtibia 50.0862
rfoot -37.976 -8.21944
rtoes 7.04579
lfemur -43.1962 2.56714 -27.4781
ltibia 49.0823
lfoot -4.88899 -0.331767
ltoes 3.94821
1251
root -25.7945 15.591 -3.87289 904.447 65.5818 -538.152
lowerback 8.32794 6.74868 4.35594
upperback 6.85838 9.63241 -0.83919
thorax 3.39466 5.19082 -3.69181
lowerneck -2.64589 5.2697 -1.8705
upperneck -5.61085 7.38539 2.79984
head -1.48491 3.76964 1.13267
rclavicle -1.02374e-013 4.25399e-014
rhumerus -22.4783 1.12829 -67.0074
rradius 77.71
rwrist 5.06786
rhand -39.5662 12.1685
rfingers 7.12502
rthumb -12.5495 -17.4346
lclavicle -1.02374e-013 4.25399e-014
lhumerus -19.6459 -19.1516 67.3729
lradius 84.6981
lwrist 12.9656
lhand -29.5012 15.4767
lfingers 7.12502
lthumb -2.83574 45.4376
rfemur -7.74065 -9.27697 29.2134
rtibia 50.0554
rfoot -37.8201 -8.15526
rtoes 6.40017
lfemur -43.1223 2.51915 -27.29
ltibia 49.5856
lfoot -5.48574 -0.143176
ltoes 4.3777
1252
root -25.7009 15.5891 -3.90365 904.704 65.7719 -537.931
lowerback 8.24457 6.6776 4.2539
upperback 6.8451 9.52468 -0.82396
thorax 3.39461 5.13006 -3.61004
lowerneck -2.65392 4.29979 -2.69096
upperneck -5.87441 6.15498 3.7057
head -1.60008 3.16196 1.57005
rclavicle -1.13904e-013 3.18055e-014
rhumerus -22.2673 1.29405 -67.197
rradius 77.6923
rwrist 5.09451
rhand -39.5706 12.2055
rfingers 7.12502
rthumb -12.5539 -17.3974
lclavicle -1.13904e-013 3.18055e-014
lhumerus -19.6688 -18.8788 67.3487
lradius 84.5738
lwrist 12.9531
lhand -29.6451 15.4968
lfingers 7.12502
lthumb -2.97469 45.4558
rfemur -7.39405 -9.15871 29.2727
rtibia 50.0294
rfoot -37.6396 -8.12071
rtoes 5.73026
lfemur -43.0241 2.47196 -27.0903
ltibia 50.0534
lfoot -6.11002 -0.0081973
ltoes 4.80232
1253
root -25.6077 15.5884 -3.93462 904.966 65.959 -537.708
lowerback 8.14964 6.60112 4.15067
upperback 6.83501 9.40956 -0.80929
thorax 3.40397 5.06585 -3.5262
lowerneck -2.62482 3.31563 -3.54816
upperneck -6.13512 4.90731 4.658
head -1.70177 2.54592 2.0428
rclavicle 3.8763e-014 -1.86858e-014
rhumerus -22.0363 1.46506 -67.3947
rradius 77.643
rwrist 5.08523
rhand -39.559 12.2325
rfingers 7.12502
rthumb -12.5426 -17.3711
lclavicle 3.8763e-014 -1.86858e-014
lhumerus -19.6692 -18.6138 67.3343
lradius 84.4336
lwrist 12.9198
lhand -29.7398 15.5
lfingers 7.12502
lthumb -3.06618 45.4577
rfemur -7.06932 -9.0416 29.332
rtibia 50.0217
rfoot -37.4298 -8.10156
rtoes 5.0255
lfemur -42.9056 2.42926 -26.8927
ltibia 50.4848
lfoot -6.75887 0.0987067
ltoes 5.17552
1254
root -25.5147 15.5885 -3.96581 905.211 66.1295 -537.503
lowerback 8.05275 6.51385 4.04466
upperback 6.82905 9.28045 -0.795641
thorax 3.41766 4.99487 -3.4411
lowerneck -2.55561 2.32154 -4.43182
upperneck -6.38955 3.64517 5.64026
head -1.78613 1.92255 2.5442
rclavicle -9.98893e-014 1.86858e-014
rhumerus -21.7934 1.65071 -67.6006
rradius 77.572
rwrist 5.03549
rhand -39.5353 12.2533
rfingers 7.12502
rthumb -12.5198 -17.3516
lclavicle -9.98893e-014 1.86858e-014
lhumerus -19.6571 -18.3561 67.3252
lradius 84.2892
lwrist 12.8818
lhand -29.7764 15.4768
lfingers 7.12502
lthumb -3.10155 45.434
rfemur -6.76403 -8.94447 29.3807
rtibia 50.044
rfoot -37.1887 -8.08409
rtoes 4.30609
lfemur -42.7606 2.38693 -26.7094
ltibia 50.8805
lfoot -7.41621 0.196408
ltoes 5.42172
1255
root -25.4226 15.5892 -3.99728 905.447 66.2914 -537.312
lowerback 7.95725 6.42072 3.94676
upperback 6.82227 9.1444 -0.789085
thorax 3.43228 4.92102 -3.36769
lowerneck -2.45067 1.32025 -5.33621
upperneck -6.63368 2.37013 6.64597
head -1.84867 1.29242 3.07095
rclavicle -5.55603e-014 1.19271e-015
rhumerus -21.5489 1.85061 -67.8151
rradius 77.4875
rwrist 4.93728
rhand -39.5045 12.2613
rfingers 7.12502
rthumb -12.4901 -17.3454
lclavicle -5.55603e-014 1.19271e-015
lhumerus -19.6282 -18.1137 67.3181
lradius 84.1433
lwrist 12.8477
lhand -29.7515 15.4349
lfingers 7.12502
lthumb -3.07749 45.3925
rfemur -6.49362 -8.86981 29.4143
rtibia 50.1067
rfoot -36.9073 -8.05141
rtoes 3.57421
lfemur -42.6054 2.35517 -26.5441
ltibia 51.2445
lfoot -8.06277 0.299795
ltoes 5.50677
1256
root -25.3314 15.5902 -4.02901 905.674 66.441 -537.137
lowerback 7.8642 6.32389 3.85772
upperback 6.81123 9.00415 -0.790293
thorax 3.44401 4.84546 -3.30759
lowerneck -2.30203 0.313683 -6.22995
upperneck -6.86517 1.08032 7.64693
head -1.88703 0.653605 3.60639
rclavicle -7.65321e-015 -9.14409e-015
rhumerus -21.3218 2.06385 -68.0362
rradius 77.4018
rwrist 4.80778
rhand -39.4769 12.2493
rfingers 7.12502
rthumb -12.4635 -17.3591
lclavicle -7.65321e-015 -9.14409e-015
lhumerus -19.5854 -17.8963 67.3127
lradius 83.998
lwrist 12.8235
lhand -29.6793 15.3906
lfingers 7.12502
lthumb -3.00779 45.3492
rfemur -6.26072 -8.82649 29.429
rtibia 50.2172
rfoot -36.5881 -7.97733
rtoes 2.89041
lfemur -42.4461 2.331 -26.398
ltibia 51.5813
lfoot -8.68147 0.409897
ltoes 5.41731
1257
root -25.2412 15.5918 -4.06099 905.889 66.5731 -536.977
lowerback 7.77977 6.22056 3.77781
upperback 6.79611 8.85618 -0.796992
thorax 3.44886 4.76638 -3.25934
lowerneck -2.10819 -0.692277 -7.08807
upperneck -7.08859 -0.219568 8.61509
head -1.90226 0.00773695 4.13369
rclavicle 1.47697e-013 -1.98785e-014
rhumerus -21.1163 2.2947 -68.2576
rradius 77.3231
rwrist 4.67177
rhand -39.4542 12.235
rfingers 7.12502
rthumb -12.4416 -17.3747
lclavicle 1.47697e-013 -1.98785e-014
lhumerus -19.5393 -17.7041 67.3079
lradius 83.863
lwrist 12.817
lhand -29.5744 15.3468
lfingers 7.12502
lthumb -2.9064 45.3067
rfemur -6.0638 -8.83109 29.4188
rtibia 50.3792
rfoot -36.2232 -7.85049
rtoes 2.22751
lfemur -42.2817 2.31436 -26.2682
ltibia 51.8961
lfoot -9.2653 0.516597
ltoes 5.18665
